<svg id="Laag_1" data-name="Laag 1" xmlns="http://www.w3.org/2000/svg" viewBox="0 0 559 396.09"><defs><style>.cls-1,.cls-4{fill:#fff;}.cls-2,.cls-3{fill:#1d1d1b;}.cls-2,.cls-4{fill-rule:evenodd;}</style></defs><title>logo</title><rect class="cls-1" width="217.34" height="302.56"/><polygon class="cls-2" points="0.06 325.79 21.11 325.79 21.11 330.76 4.9 330.76 4.9 391.12 21.11 391.12 21.11 396.09 0.06 396.09 0.06 325.79"/><path class="cls-3" d="M33.82,353v10.86A7.75,7.75,0,0,0,35.94,365a6.58,6.58,0,0,0,2.23.4,5.91,5.91,0,0,0,4.62-1.86,7.31,7.31,0,0,0,1.69-5.09,7.54,7.54,0,0,0-1.67-5.12,5.52,5.52,0,0,0-4.4-1.94,7.1,7.1,0,0,0-2.33.39A8.5,8.5,0,0,0,33.82,353Zm-7.94,30.6V345.84h7.64v2.08a11.12,11.12,0,0,1,3.37-2,11.39,11.39,0,0,1,3.93-.64A11.1,11.1,0,0,1,49.46,349a15.38,15.38,0,0,1,0,19.11,11.14,11.14,0,0,1-8.64,3.65,11.85,11.85,0,0,1-3.82-.58,9.75,9.75,0,0,1-3.18-1.82V383.6Z"/><path class="cls-3" d="M59.88,371.17V345.84h8v6.79a19.93,19.93,0,0,1,3.9-5.52,6,6,0,0,1,4.09-1.67,6.7,6.7,0,0,1,2.32.46,14.7,14.7,0,0,1,2.71,1.41l-2.13,7.27a10,10,0,0,0-2.23-1.36,5.15,5.15,0,0,0-2-.43,5.38,5.38,0,0,0-4.08,2,11.88,11.88,0,0,0-2.58,5.47v10.9Z"/><path class="cls-3" d="M91,358.53a8,8,0,0,0,1.57,5.18,5.39,5.39,0,0,0,8.27,0,9.42,9.42,0,0,0,0-10.38,5.32,5.32,0,0,0-8.25,0,8.09,8.09,0,0,0-1.58,5.2Zm-8.2,0A12.56,12.56,0,0,1,86.69,349a14,14,0,0,1,10-3.68A14.09,14.09,0,0,1,106.82,349a13.54,13.54,0,0,1,0,19,14.12,14.12,0,0,1-10.1,3.66,14,14,0,0,1-10-3.65A12.46,12.46,0,0,1,82.83,358.53Z"/><path class="cls-3" d="M114,376.7a4.69,4.69,0,0,0,2.93-1.75,5.89,5.89,0,0,0,1-3.57V345.84h8v25.33c0,4-.75,7-2.23,8.92s-3.88,3.13-7.18,3.5L114,376.7Zm3.63-39.07a4.26,4.26,0,1,1,8.53,0,4.07,4.07,0,0,1-1.24,3,4.33,4.33,0,0,1-6,0A4.08,4.08,0,0,1,117.64,337.63Z"/><path class="cls-3" d="M160.23,368.4a20.08,20.08,0,0,1-5.46,2.5,22.59,22.59,0,0,1-6.14.81q-6.54,0-10.26-3.58t-3.71-9.92a12.47,12.47,0,0,1,3.63-9.37,13.34,13.34,0,0,1,9.68-3.51,12,12,0,0,1,9.41,3.81q3.45,3.8,3.45,10.49v.26H142.88V360a5.92,5.92,0,0,0,2.06,4.77,8.41,8.41,0,0,0,5.64,1.75,14.21,14.21,0,0,0,4.82-.86,21.18,21.18,0,0,0,4.83-2.55v5.27ZM142.94,356l9.83,0a6.36,6.36,0,0,0-1.49-3.85,4.22,4.22,0,0,0-3.27-1.39,4.57,4.57,0,0,0-3.41,1.39A6.56,6.56,0,0,0,142.94,356Z"/><path class="cls-3" d="M190.84,370a16.52,16.52,0,0,1-3.79,1.23,22,22,0,0,1-4.31.4q-6.81,0-10.79-3.54a12.19,12.19,0,0,1-4-9.59,12.48,12.48,0,0,1,3.94-9.62q3.94-3.63,10.52-3.63a19.91,19.91,0,0,1,4.06.41,21.35,21.35,0,0,1,3.93,1.25v6.22a26,26,0,0,0-3.7-1.22,13.44,13.44,0,0,0-3.08-.4,7.38,7.38,0,0,0-5.35,1.86,7.81,7.81,0,0,0,0,10.31,8,8,0,0,0,5.63,1.83,13.44,13.44,0,0,0,3.27-.42,22,22,0,0,0,3.63-1.27Z"/><path class="cls-3" d="M200.31,351.37h-3.63v-1.72L207,338.43h1.2v7.41h8.66v5.53h-8.66v9.35c0,1.94.27,3.25.83,3.89a3.83,3.83,0,0,0,3,1,8.79,8.79,0,0,0,2.25-.31,14.38,14.38,0,0,0,2.55-.95l.05,6a22.57,22.57,0,0,1-3.85,1.07,21.88,21.88,0,0,1-3.82.35q-4.83,0-6.89-2.49c-1.38-1.65-2.06-4.51-2.06-8.55Z"/><path class="cls-3" d="M230.24,358.8a8.18,8.18,0,0,0,2.33,5.87,7.67,7.67,0,0,0,11.22,0,8.5,8.5,0,0,0,0-11.69,7.69,7.69,0,0,0-11.23,0,8.11,8.11,0,0,0-2.33,5.83Zm-5.15,0a12.3,12.3,0,0,1,3.82-9.11,13.36,13.36,0,0,1,14.29-2.76,13.25,13.25,0,0,1,4.23,2.79,13.85,13.85,0,0,1,2.89,4.22,12.22,12.22,0,0,1,1,4.86,12.66,12.66,0,0,1-1,5,13.09,13.09,0,0,1-7.07,7,13.19,13.19,0,0,1-5,.94,12.84,12.84,0,0,1-9.32-3.74A12.31,12.31,0,0,1,225.09,358.79Z"/><path class="cls-3" d="M259.16,371.17V346.48h4.92v3a13.2,13.2,0,0,1,3.68-2.58,9.67,9.67,0,0,1,3.94-.81,8.51,8.51,0,0,1,6.32,2.33,8.65,8.65,0,0,1,2.31,6.39v16.36H275.4v-15.1a6.5,6.5,0,0,0-1.27-4.42,5,5,0,0,0-3.94-1.43,7.17,7.17,0,0,0-3.33.74,9,9,0,0,0-2.79,2.42v17.8Z"/><path class="cls-3" d="M303.28,370.4a9.3,9.3,0,0,1-2.48.95,12.2,12.2,0,0,1-2.85.31c-2.77,0-4.73-.66-5.87-2s-1.7-3.72-1.7-7.21v-11.7h-4.2v-.48l8.63-9.54h.57v5.75h7.73v4.28h-7.73v11.33q0,3.07.77,4a3.62,3.62,0,0,0,2.85.89,8.36,8.36,0,0,0,2.19-.29,8.5,8.5,0,0,0,2.09-.91Z"/><polygon class="cls-3" points="317.91 371.66 306.98 346.48 312.16 346.48 319.22 362.86 326.01 346.48 329.24 346.48 336.13 362.81 343.2 346.48 348.4 346.48 337.39 371.66 334.99 371.66 327.66 353.78 320.32 371.66 317.91 371.66"/><path class="cls-3" d="M354.38,339.21a2.74,2.74,0,1,1,.8,2,2.66,2.66,0,0,1-.8-2Zm.32,32V346.48h4.92v24.69Z"/><path class="cls-3" d="M391.19,346.48l-10.34,11.28,12.42,13.42h-6.73L374.5,358l10.63-11.55Zm-21.78,24.69V333.78h4.92v37.39Z"/><path class="cls-3" d="M420.79,346.48l-10.34,11.28,12.42,13.42h-6.73L404.1,358l10.63-11.55ZM399,371.17V333.78h4.92v37.39Z"/><path class="cls-3" d="M450.14,368.56a20.5,20.5,0,0,1-5.06,2.37,18.73,18.73,0,0,1-5.39.79,12.37,12.37,0,0,1-9.34-3.62q-3.49-3.63-3.48-9.66a12.35,12.35,0,0,1,3.36-9A11.66,11.66,0,0,1,439,346a10.78,10.78,0,0,1,8.47,3.5q3.13,3.5,3.13,9.46v.72h-18.5a7.31,7.31,0,0,0,7.88,7.44,15.33,15.33,0,0,0,4.91-.87,24.16,24.16,0,0,0,5.28-2.64v4.94Zm-18.07-12.38,13.07,0a6.53,6.53,0,0,0-2-4.3,6,6,0,0,0-4.28-1.63,6.73,6.73,0,0,0-4.57,1.51A7.45,7.45,0,0,0,432.06,356.18Z"/><rect class="cls-3" x="458.49" y="333.78" width="4.92" height="37.39"/><path class="cls-3" d="M472.89,339.21a2.74,2.74,0,1,1,.8,2,2.66,2.66,0,0,1-.8-2Zm.32,32V346.48h4.92v24.69Z"/><path class="cls-3" d="M487.78,371.17V346.48h4.92v3a13.22,13.22,0,0,1,3.68-2.58,9.68,9.68,0,0,1,3.94-.81,8.51,8.51,0,0,1,6.32,2.33,8.65,8.65,0,0,1,2.31,6.39v16.36H504v-15.1a6.5,6.5,0,0,0-1.27-4.42,5,5,0,0,0-3.94-1.43,7.17,7.17,0,0,0-3.33.74,9,9,0,0,0-2.79,2.42v17.8Z"/><path class="cls-3" d="M519.72,375.77a2.93,2.93,0,0,0,1.82,2.74,12.28,12.28,0,0,0,5.35.92,13,13,0,0,0,5.4-.91,2.77,2.77,0,0,0,2-2.48c0-1.16-.74-2-2.21-2.62a18.69,18.69,0,0,0-6.62-.88,8.19,8.19,0,0,0-4.1.92,2.68,2.68,0,0,0-1.59,2.32Zm2.92-12.48a8.43,8.43,0,0,1-2.59-14.51q3.09-2.3,9.2-2.3h9.81v4h-4.17a7.53,7.53,0,0,1,1.5,2.31,7.41,7.41,0,0,1,.48,2.72A7.82,7.82,0,0,1,535,360.8a8.34,8.34,0,0,1-5.06,2.75c-.47.09-1.09.19-1.87.32-2.65.41-4,1.09-4,2s1.9,1.79,5.69,2.54l2.2.43a11,11,0,0,1,5.43,2.51,5.94,5.94,0,0,1,1.84,4.49,6.38,6.38,0,0,1-3.14,5.75q-3.15,2-9.13,2T518,381.69a6.16,6.16,0,0,1-3.08-5.55,5.59,5.59,0,0,1,1.81-4.28,10.4,10.4,0,0,1,5.3-2.33,6.05,6.05,0,0,1-2.06-1.38,2.38,2.38,0,0,1-.66-1.64,2.34,2.34,0,0,1,.8-1.73,8,8,0,0,1,2.54-1.5Zm4.31-12.64a5.22,5.22,0,0,0-3.7,1.32,4.39,4.39,0,0,0-1.43,3.37,4.33,4.33,0,0,0,1.36,3.38,5.48,5.48,0,0,0,3.78,1.21,5.69,5.69,0,0,0,3.85-1.23,4.22,4.22,0,0,0,1.41-3.37,4.31,4.31,0,0,0-1.49-3.37A5.44,5.44,0,0,0,526.95,350.65Z"/><polygon class="cls-2" points="558.58 325.79 537.53 325.79 537.53 330.76 553.73 330.76 553.73 391.12 537.53 391.12 537.53 396.09 558.58 396.09 558.58 325.79"/><path class="cls-3" d="M.71.47V303H558.46V.47Zm552,108.75H217.56v-84c-7.59.08-14.45-.4-26.14.56a183.24,183.24,0,0,0-27.49,4.73,142.52,142.52,0,0,0-31.52,12.79c-19.3,11-34.67,25.35-46.07,42.84a118.37,118.37,0,0,0-19.18,65q0,49.49,35.67,85.47,19.41,19.62,41.83,29.17c13.68,5.83,50.79,9.39,72.89,10.76V196.39h335.1V297.26l-216.62,0a62.32,62.32,0,0,0,7.65-4.41q28.85-19.92,28.85-55.72c0-8.49-2.64-20.48-6.39-31.37H340.48l1.61,3.89c5.31,11.22,7.92,19,7.92,26.58,0,15.19-6.08,24.24-18.23,33.33-8.16,6-19.85,7.35-35.16,7.35H269.77v20.35H217.62c2.19.07-4.68.41-13.66-.07-22.09-1.17-49.6-4.64-61.21-9.06-26.53-10.1-48.61-25.79-66.1-47.33q-32-39.9-32-89.58,0-58.09,41.53-100.09,22.07-22.38,49-33.58a160.15,160.15,0,0,1,35.62-9.9c18.61-2.82,33.31-2.16,46.82-2.13v0h94.29a59.36,59.36,0,0,0-8.07,4.46q-25,16.72-25,48.09a59.6,59.6,0,0,0,2.62,18.32c1.5,4.88,4.94,12.06,10.32,23.53h25l-8.35-16.58c-4.69-10-7-17.27-7-25.06,0-5.19,1.54-9,4.54-14.6s6.62-8.19,11-10.86c6.31-4,15.16-6,26.62-6h18V5.46H552.66Z"/><path class="cls-4" d="M150.93,166.42v10.24a48.66,48.66,0,0,1-7.41,2,40.66,40.66,0,0,1-7.15.65q-12.34,0-20.23-7.39a26.25,26.25,0,0,1,0-37.56q7.9-7.51,19.79-7.52a34.55,34.55,0,0,1,7.2.76,32.78,32.78,0,0,1,7,2.35v10.74a29.41,29.41,0,0,0-6.91-3.15,24.38,24.38,0,0,0-6.94-1q-7.76,0-12.64,4.63a17.05,17.05,0,0,0,.09,24c3.29,3.11,7.65,4.67,13,4.67A31,31,0,0,0,144,169a31.92,31.92,0,0,0,7-2.59Zm19.76-49a5.6,5.6,0,1,1,1.64,4,5.49,5.49,0,0,1-1.64-4Zm.65,61V128h10v50.38Zm61.46-1.58a18.88,18.88,0,0,1-5.06,1.94,24.87,24.87,0,0,1-5.81.63c-5.66,0-9.66-1.34-12-4s-3.46-7.59-3.46-14.72V136.7h-8.56l18.76-23V128h15.76v8.73H216.7v23.12q0,6.25,1.56,8.1c1,1.21,3,1.82,5.81,1.82a17.12,17.12,0,0,0,4.47-.6,17.44,17.44,0,0,0,4.26-1.86v9.49Zm31.75-8.34L243.33,128h11.19l15.54,29.5,14.5-29.5h11l-34.25,68.41h-11l14.25-27.95Zm42.94-19.78h26.87V159.4H307.48Zm46.64,26.28V164.19a44.41,44.41,0,0,0,8.73,4.58,21.81,21.81,0,0,0,7.69,1.58,11,11,0,0,0,6.07-1.45,4.47,4.47,0,0,0,2.21-3.95q0-3.15-8.23-7.26c-1.6-.8-2.85-1.43-3.7-1.92q-7-3.6-9.66-6.94a12.9,12.9,0,0,1-2.62-8.21,12.32,12.32,0,0,1,4.52-10.05q4.52-3.71,12.43-3.7a32.93,32.93,0,0,1,8.19,1,31.8,31.8,0,0,1,7.69,3.13v9.83A48.18,48.18,0,0,0,379,137a24.06,24.06,0,0,0-7.3-1.23,9.14,9.14,0,0,0-4.88,1.1,3.52,3.52,0,0,0-1.71,3.16q0,3.82,10.52,9l.93.43q8.24,4.16,10.74,7.28a12.34,12.34,0,0,1,2.51,7.95,12.88,12.88,0,0,1-5,10.63q-5,4-13.21,4a35.91,35.91,0,0,1-17.46-4.41Zm55.31-57.54a5.59,5.59,0,1,1,1.64,4,5.48,5.48,0,0,1-1.64-4Zm.65,61V128h10v50.38Zm61.46-1.58a18.87,18.87,0,0,1-5.06,1.94,24.87,24.87,0,0,1-5.81.63c-5.66,0-9.66-1.34-12-4s-3.46-7.59-3.46-14.72V136.7h-8.56l18.76-23V128h15.76v8.73H455.44v23.12q0,6.25,1.56,8.1c1,1.21,3,1.82,5.81,1.82a17.13,17.13,0,0,0,4.47-.6,17.45,17.45,0,0,0,4.26-1.86v9.49ZM534.26,173a41.92,41.92,0,0,1-10.33,4.84,38.17,38.17,0,0,1-11,1.6q-11.92,0-19.06-7.39t-7.11-19.71q0-11.31,6.85-18.33t17.85-7q10.92,0,17.29,7.15t6.38,19.3v1.47H497.39q.45,7.15,4.69,11.17c2.83,2.66,6.64,4,11.39,4a31.24,31.24,0,0,0,10-1.77,49.31,49.31,0,0,0,10.78-5.38V173Zm-36.87-25.26h26.67a13.38,13.38,0,0,0-4-8.82,12.16,12.16,0,0,0-8.73-3.33,13.74,13.74,0,0,0-9.33,3.07C499.66,140.74,498.12,143.75,497.39,147.76Z"/></svg>